<mxfile host="app.diagrams.net" agent="Mozilla/5.0 (Windows NT 10.0; Win64; x64; rv:129.0) Gecko/20100101 Firefox/129.0" version="24.7.7">
  <diagram name="Page-1" id="lQGOSBgDbE9h0LmsC_VI">
    <mxGraphModel dx="1214" dy="2727" grid="1" gridSize="10" guides="1" tooltips="1" connect="1" arrows="1" fold="1" page="1" pageScale="1" pageWidth="827" pageHeight="1169" math="1" shadow="0">
      <root>
        <mxCell id="0" />
        <mxCell id="1" parent="0" />
        <mxCell id="FphNVmNiipGsw1vmUYAS-8" value="" style="shape=cube;whiteSpace=wrap;html=1;boundedLbl=1;backgroundOutline=1;darkOpacity=0.05;darkOpacity2=0.1;size=130;" parent="1" vertex="1">
          <mxGeometry x="1830" y="156.5" width="690" height="567" as="geometry" />
        </mxCell>
        <mxCell id="FphNVmNiipGsw1vmUYAS-13" value="" style="endArrow=none;html=1;rounded=0;strokeWidth=4;" parent="1" edge="1">
          <mxGeometry width="50" height="50" relative="1" as="geometry">
            <mxPoint x="2040" y="480" as="sourcePoint" />
            <mxPoint x="2040" y="400" as="targetPoint" />
          </mxGeometry>
        </mxCell>
        <mxCell id="FphNVmNiipGsw1vmUYAS-28" value="" style="endArrow=none;html=1;rounded=0;strokeWidth=4;" parent="1" edge="1">
          <mxGeometry width="50" height="50" relative="1" as="geometry">
            <mxPoint x="1830" y="352" as="sourcePoint" />
            <mxPoint x="1960" y="482" as="targetPoint" />
          </mxGeometry>
        </mxCell>
        <mxCell id="FphNVmNiipGsw1vmUYAS-29" value="" style="endArrow=none;html=1;rounded=0;strokeWidth=4;" parent="1" edge="1">
          <mxGeometry width="50" height="50" relative="1" as="geometry">
            <mxPoint x="1830" y="270" as="sourcePoint" />
            <mxPoint x="1960" y="400" as="targetPoint" />
          </mxGeometry>
        </mxCell>
        <mxCell id="FphNVmNiipGsw1vmUYAS-52" value="" style="endArrow=none;dashed=1;html=1;rounded=0;strokeWidth=3;" parent="1" edge="1">
          <mxGeometry width="50" height="50" relative="1" as="geometry">
            <mxPoint x="3720" y="790" as="sourcePoint" />
            <mxPoint x="2000" y="440" as="targetPoint" />
            <Array as="points">
              <mxPoint x="3720" y="900" />
              <mxPoint x="2000" y="880" />
            </Array>
          </mxGeometry>
        </mxCell>
        <mxCell id="FphNVmNiipGsw1vmUYAS-54" value="" style="endArrow=none;html=1;rounded=0;strokeWidth=8;" parent="1" edge="1">
          <mxGeometry width="50" height="50" relative="1" as="geometry">
            <mxPoint x="2880" y="370" as="sourcePoint" />
            <mxPoint x="3660" y="360" as="targetPoint" />
            <Array as="points">
              <mxPoint x="2940" y="400" />
              <mxPoint x="3000" y="360" />
              <mxPoint x="3060" y="640" />
              <mxPoint x="3120" y="690" />
              <mxPoint x="3180" y="320" />
              <mxPoint x="3240" y="300" />
              <mxPoint x="3300" y="330" />
              <mxPoint x="3360" y="280" />
              <mxPoint x="3420" y="270" />
              <mxPoint x="3480" y="380" />
              <mxPoint x="3540" y="440" />
              <mxPoint x="3600" y="380" />
            </Array>
          </mxGeometry>
        </mxCell>
        <mxCell id="FphNVmNiipGsw1vmUYAS-55" value="" style="endArrow=none;dashed=1;html=1;rounded=0;strokeWidth=3;" parent="1" edge="1">
          <mxGeometry width="50" height="50" relative="1" as="geometry">
            <mxPoint x="2840" y="770" as="sourcePoint" />
            <mxPoint x="2480" y="440" as="targetPoint" />
            <Array as="points">
              <mxPoint x="2840" y="830" />
              <mxPoint x="2470" y="830" />
            </Array>
          </mxGeometry>
        </mxCell>
        <mxCell id="FphNVmNiipGsw1vmUYAS-93" value="" style="endArrow=none;html=1;rounded=0;strokeWidth=4;" parent="1" edge="1">
          <mxGeometry width="50" height="50" relative="1" as="geometry">
            <mxPoint x="2120" y="480" as="sourcePoint" />
            <mxPoint x="2120" y="400" as="targetPoint" />
          </mxGeometry>
        </mxCell>
        <mxCell id="FphNVmNiipGsw1vmUYAS-94" value="" style="endArrow=none;html=1;rounded=0;strokeWidth=4;" parent="1" edge="1">
          <mxGeometry width="50" height="50" relative="1" as="geometry">
            <mxPoint x="2200" y="480" as="sourcePoint" />
            <mxPoint x="2200" y="400" as="targetPoint" />
          </mxGeometry>
        </mxCell>
        <mxCell id="FphNVmNiipGsw1vmUYAS-95" value="" style="endArrow=none;html=1;rounded=0;strokeWidth=4;" parent="1" edge="1">
          <mxGeometry width="50" height="50" relative="1" as="geometry">
            <mxPoint x="2280" y="480" as="sourcePoint" />
            <mxPoint x="2280" y="400" as="targetPoint" />
          </mxGeometry>
        </mxCell>
        <mxCell id="FphNVmNiipGsw1vmUYAS-96" value="" style="endArrow=none;html=1;rounded=0;strokeWidth=4;" parent="1" edge="1">
          <mxGeometry width="50" height="50" relative="1" as="geometry">
            <mxPoint x="2360" y="480" as="sourcePoint" />
            <mxPoint x="2360" y="400" as="targetPoint" />
          </mxGeometry>
        </mxCell>
        <mxCell id="FphNVmNiipGsw1vmUYAS-97" value="" style="endArrow=none;html=1;rounded=0;strokeWidth=4;" parent="1" edge="1">
          <mxGeometry width="50" height="50" relative="1" as="geometry">
            <mxPoint x="2440" y="480" as="sourcePoint" />
            <mxPoint x="2440" y="400" as="targetPoint" />
          </mxGeometry>
        </mxCell>
        <mxCell id="FphNVmNiipGsw1vmUYAS-98" value="" style="rounded=0;whiteSpace=wrap;html=1;fillColor=none;strokeWidth=6;strokeColor=#FF3333;" parent="1" vertex="1">
          <mxGeometry x="1960" y="400" width="560" height="80" as="geometry" />
        </mxCell>
        <mxCell id="FphNVmNiipGsw1vmUYAS-99" value="&lt;font style=&quot;font-size: 30px;&quot;&gt;$$Disparity$$&lt;/font&gt;" style="text;html=1;strokeColor=none;fillColor=none;align=center;verticalAlign=middle;whiteSpace=wrap;rounded=0;" parent="1" vertex="1">
          <mxGeometry x="3120" y="760" width="270" height="100" as="geometry" />
        </mxCell>
        <mxCell id="FphNVmNiipGsw1vmUYAS-100" value="&lt;font style=&quot;font-size: 30px;&quot;&gt;$$Rows$$&lt;/font&gt;" style="text;html=1;align=center;verticalAlign=middle;resizable=0;points=[];autosize=1;strokeColor=none;fillColor=none;rotation=-90;" parent="1" vertex="1">
          <mxGeometry x="1710" y="350" width="170" height="50" as="geometry" />
        </mxCell>
        <mxCell id="FphNVmNiipGsw1vmUYAS-101" value="&lt;div style=&quot;font-size: 30px;&quot;&gt;&lt;font style=&quot;font-size: 30px;&quot;&gt;$$Columns$$&lt;/font&gt;&lt;/div&gt;" style="text;html=1;align=center;verticalAlign=middle;resizable=0;points=[];autosize=1;strokeColor=none;fillColor=none;rotation=45;" parent="1" vertex="1">
          <mxGeometry x="1820" y="190" width="210" height="50" as="geometry" />
        </mxCell>
        <mxCell id="FphNVmNiipGsw1vmUYAS-104" value="" style="endArrow=classic;html=1;rounded=0;strokeWidth=5;" parent="1" edge="1">
          <mxGeometry width="50" height="50" relative="1" as="geometry">
            <mxPoint x="2840" y="740" as="sourcePoint" />
            <mxPoint x="3720" y="740" as="targetPoint" />
          </mxGeometry>
        </mxCell>
        <mxCell id="FphNVmNiipGsw1vmUYAS-105" value="" style="endArrow=classic;html=1;rounded=0;strokeWidth=5;" parent="1" edge="1">
          <mxGeometry width="50" height="50" relative="1" as="geometry">
            <mxPoint x="2841" y="741" as="sourcePoint" />
            <mxPoint x="2841" y="342" as="targetPoint" />
          </mxGeometry>
        </mxCell>
        <mxCell id="FphNVmNiipGsw1vmUYAS-106" value="&lt;font style=&quot;font-size: 30px;&quot;&gt;$$Dissimilarity$$&lt;/font&gt;" style="text;html=1;align=center;verticalAlign=middle;resizable=0;points=[];autosize=1;strokeColor=none;fillColor=none;rotation=-90;" parent="1" vertex="1">
          <mxGeometry x="2660" y="500" width="250" height="50" as="geometry" />
        </mxCell>
        <mxCell id="uNeBDilDGbTARDH8ei4s-10" value="&lt;font style=&quot;font-size: 50px;&quot;&gt;\(Cost~volume\)&lt;/font&gt;" style="text;html=1;strokeColor=none;fillColor=none;align=center;verticalAlign=middle;whiteSpace=wrap;rounded=0;" parent="1" vertex="1">
          <mxGeometry x="1930" y="-53.5" width="440" height="210" as="geometry" />
        </mxCell>
        <mxCell id="jDUtmc2_KI0zMrj57jFm-1" value="&lt;font style=&quot;font-size: 50px;&quot;&gt;\(Cost~curve\)&lt;/font&gt;" style="text;html=1;strokeColor=none;fillColor=none;align=center;verticalAlign=middle;whiteSpace=wrap;rounded=0;" vertex="1" parent="1">
          <mxGeometry x="3090" y="-53.5" width="390" height="210" as="geometry" />
        </mxCell>
        <mxCell id="jDUtmc2_KI0zMrj57jFm-2" value="" style="ellipse;whiteSpace=wrap;html=1;fillColor=none;strokeColor=#CC0000;strokeWidth=4;dashed=1;" vertex="1" parent="1">
          <mxGeometry x="2990" y="580" width="220" height="130" as="geometry" />
        </mxCell>
        <mxCell id="jDUtmc2_KI0zMrj57jFm-4" value="" style="endArrow=none;html=1;rounded=0;strokeWidth=6;" edge="1" parent="1">
          <mxGeometry width="50" height="50" relative="1" as="geometry">
            <mxPoint x="2880" y="760" as="sourcePoint" />
            <mxPoint x="2880" y="720" as="targetPoint" />
          </mxGeometry>
        </mxCell>
        <mxCell id="jDUtmc2_KI0zMrj57jFm-5" value="" style="endArrow=none;html=1;rounded=0;strokeWidth=6;" edge="1" parent="1">
          <mxGeometry width="50" height="50" relative="1" as="geometry">
            <mxPoint x="2940" y="760" as="sourcePoint" />
            <mxPoint x="2940" y="720" as="targetPoint" />
          </mxGeometry>
        </mxCell>
        <mxCell id="jDUtmc2_KI0zMrj57jFm-6" value="" style="endArrow=none;html=1;rounded=0;strokeWidth=6;" edge="1" parent="1">
          <mxGeometry width="50" height="50" relative="1" as="geometry">
            <mxPoint x="3000" y="760" as="sourcePoint" />
            <mxPoint x="3000" y="720" as="targetPoint" />
          </mxGeometry>
        </mxCell>
        <mxCell id="jDUtmc2_KI0zMrj57jFm-7" value="" style="endArrow=none;html=1;rounded=0;strokeWidth=6;" edge="1" parent="1">
          <mxGeometry width="50" height="50" relative="1" as="geometry">
            <mxPoint x="3060" y="760" as="sourcePoint" />
            <mxPoint x="3060" y="720" as="targetPoint" />
          </mxGeometry>
        </mxCell>
        <mxCell id="jDUtmc2_KI0zMrj57jFm-8" value="" style="endArrow=none;html=1;rounded=0;strokeWidth=6;" edge="1" parent="1">
          <mxGeometry width="50" height="50" relative="1" as="geometry">
            <mxPoint x="3120" y="760" as="sourcePoint" />
            <mxPoint x="3120" y="720" as="targetPoint" />
          </mxGeometry>
        </mxCell>
        <mxCell id="jDUtmc2_KI0zMrj57jFm-9" value="" style="endArrow=none;html=1;rounded=0;strokeWidth=6;" edge="1" parent="1">
          <mxGeometry width="50" height="50" relative="1" as="geometry">
            <mxPoint x="3180" y="760" as="sourcePoint" />
            <mxPoint x="3180" y="720" as="targetPoint" />
          </mxGeometry>
        </mxCell>
        <mxCell id="jDUtmc2_KI0zMrj57jFm-10" value="" style="endArrow=none;html=1;rounded=0;strokeWidth=6;" edge="1" parent="1">
          <mxGeometry width="50" height="50" relative="1" as="geometry">
            <mxPoint x="3240" y="760" as="sourcePoint" />
            <mxPoint x="3240" y="720" as="targetPoint" />
          </mxGeometry>
        </mxCell>
        <mxCell id="jDUtmc2_KI0zMrj57jFm-11" value="" style="endArrow=none;html=1;rounded=0;strokeWidth=6;" edge="1" parent="1">
          <mxGeometry width="50" height="50" relative="1" as="geometry">
            <mxPoint x="3300" y="760" as="sourcePoint" />
            <mxPoint x="3300" y="720" as="targetPoint" />
          </mxGeometry>
        </mxCell>
        <mxCell id="jDUtmc2_KI0zMrj57jFm-12" value="" style="endArrow=none;html=1;rounded=0;strokeWidth=6;" edge="1" parent="1">
          <mxGeometry width="50" height="50" relative="1" as="geometry">
            <mxPoint x="3360" y="760" as="sourcePoint" />
            <mxPoint x="3360" y="720" as="targetPoint" />
          </mxGeometry>
        </mxCell>
        <mxCell id="jDUtmc2_KI0zMrj57jFm-13" value="" style="endArrow=none;html=1;rounded=0;strokeWidth=6;" edge="1" parent="1">
          <mxGeometry width="50" height="50" relative="1" as="geometry">
            <mxPoint x="3420" y="760" as="sourcePoint" />
            <mxPoint x="3420" y="720" as="targetPoint" />
          </mxGeometry>
        </mxCell>
        <mxCell id="jDUtmc2_KI0zMrj57jFm-14" value="" style="endArrow=none;html=1;rounded=0;strokeWidth=6;" edge="1" parent="1">
          <mxGeometry width="50" height="50" relative="1" as="geometry">
            <mxPoint x="3480" y="760" as="sourcePoint" />
            <mxPoint x="3480" y="720" as="targetPoint" />
          </mxGeometry>
        </mxCell>
        <mxCell id="jDUtmc2_KI0zMrj57jFm-15" value="" style="endArrow=none;html=1;rounded=0;strokeWidth=6;" edge="1" parent="1">
          <mxGeometry width="50" height="50" relative="1" as="geometry">
            <mxPoint x="3540" y="760" as="sourcePoint" />
            <mxPoint x="3540" y="720" as="targetPoint" />
          </mxGeometry>
        </mxCell>
        <mxCell id="jDUtmc2_KI0zMrj57jFm-16" value="" style="endArrow=none;html=1;rounded=0;strokeWidth=6;" edge="1" parent="1">
          <mxGeometry width="50" height="50" relative="1" as="geometry">
            <mxPoint x="3600" y="760" as="sourcePoint" />
            <mxPoint x="3600" y="720" as="targetPoint" />
          </mxGeometry>
        </mxCell>
        <mxCell id="jDUtmc2_KI0zMrj57jFm-22" value="" style="endArrow=none;html=1;rounded=0;strokeWidth=6;" edge="1" parent="1">
          <mxGeometry width="50" height="50" relative="1" as="geometry">
            <mxPoint x="3660" y="760" as="sourcePoint" />
            <mxPoint x="3660" y="720" as="targetPoint" />
          </mxGeometry>
        </mxCell>
        <mxCell id="jDUtmc2_KI0zMrj57jFm-24" value="&lt;div style=&quot;font-size: 30px;&quot;&gt;&lt;font color=&quot;#cc0000&quot; style=&quot;font-size: 30px;&quot;&gt;\(\text{Minimal matching costs}\)&lt;/font&gt;&lt;/div&gt;&lt;div style=&quot;font-size: 30px;&quot;&gt;&lt;font color=&quot;#cc0000&quot; style=&quot;font-size: 30px;&quot;&gt;\(\text{indicating potential matchs}\)&lt;/font&gt;&lt;/div&gt;" style="text;html=1;strokeColor=none;fillColor=none;align=center;verticalAlign=middle;whiteSpace=wrap;rounded=0;" vertex="1" parent="1">
          <mxGeometry x="3190" y="590" width="510" height="100" as="geometry" />
        </mxCell>
        <mxCell id="jDUtmc2_KI0zMrj57jFm-25" value="&lt;font style=&quot;font-size: 30px;&quot;&gt;$$Disparity$$&lt;/font&gt;" style="text;html=1;strokeColor=none;fillColor=none;align=center;verticalAlign=middle;whiteSpace=wrap;rounded=0;" vertex="1" parent="1">
          <mxGeometry x="2090" y="210" width="270" height="100" as="geometry" />
        </mxCell>
      </root>
    </mxGraphModel>
  </diagram>
</mxfile>
